<?xml version="1.0" encoding="UTF-8"?>
<svg xmlns="http://www.w3.org/2000/svg" xmlns:xlink="http://www.w3.org/1999/xlink" viewBox="0 0 50 50" width="50px" height="50px">
<g id="surface44306499">
<path style=" stroke:none;fill-rule:nonzero;fill:rgb(100%,100%,100%);fill-opacity:1;" d="M 25 3 C 12.851562 3 3 12.851562 3 25 C 3 36.03125 11.125 45.136719 21.710938 46.726562 L 21.710938 30.832031 L 16.269531 30.832031 L 16.269531 25.046875 L 21.710938 25.046875 L 21.710938 21.199219 C 21.710938 14.828125 24.816406 12.03125 30.109375 12.03125 C 32.648438 12.03125 33.988281 12.21875 34.621094 12.304688 L 34.621094 17.355469 L 31.011719 17.355469 C 28.761719 17.355469 27.976562 19.484375 27.976562 21.886719 L 27.976562 25.046875 L 34.566406 25.046875 L 33.671875 30.832031 L 27.976562 30.832031 L 27.976562 46.773438 C 38.714844 45.316406 47 36.136719 47 25 C 47 12.851562 37.148438 3 25 3 Z M 25 3 "/>
</g>
</svg>
